<svg viewBox="0 0 20.36 20.36" xmlns="http://www.w3.org/2000/svg"><g fill="currentColor"><path d="m10.18 20.36a10.18 10.18 0 1 1 7.21-3 10.16 10.16 0 0 1 -7.21 3zm0-19.79a9.61 9.61 0 1 0 6.82 16.43 9.61 9.61 0 0 0 -6.82-16.43z"/><path d="m6 14.63a.28.28 0 0 1 -.2-.08.27.27 0 0 1 0-.4l8.23-8.24a.28.28 0 0 1 .4 0 .27.27 0 0 1 0 .4l-8.21 8.24a.32.32 0 0 1 -.22.08z"/><path d="m14.25 14.63a.32.32 0 0 1 -.2-.08l-8.23-8.24a.27.27 0 0 1 0-.4.28.28 0 0 1 .4 0l8.23 8.24a.27.27 0 0 1 0 .4.28.28 0 0 1 -.2.08z"/></g></svg>