<svg viewBox="0 0 20.42 20.69" xmlns="http://www.w3.org/2000/svg"><g fill="currentColor"><path d="m20.14 20.69h-19.86a.29.29 0 0 1 -.28-.29v-10a.28.28 0 0 1 .28-.28.28.28 0 0 1 .29.28v9.68h19.29v-9.64a.28.28 0 0 1 .56 0v10a.28.28 0 0 1 -.28.25z"/><path d="m10.21 15.87a.28.28 0 0 1 -.28-.28v-15.31a.28.28 0 1 1 .56 0v15.31a.28.28 0 0 1 -.28.28z"/><path d="m10.21 16.3a.27.27 0 0 1 -.23-.12l-2.1-2.95a.28.28 0 0 1 .46-.32l1.87 2.62 1.87-2.62a.29.29 0 0 1 .4-.07.28.28 0 0 1 .06.39l-2.1 2.95a.27.27 0 0 1 -.23.12z"/></g></svg>