<svg viewBox="0 0 18.44 20.47" xmlns="http://www.w3.org/2000/svg"><g fill="currentColor"><path d="m.28 20.47a.28.28 0 0 1 -.28-.28v-19.91a.29.29 0 0 1 .28-.28.29.29 0 0 1 .29.28v19.91a.28.28 0 0 1 -.29.28z"/><path d="m7.18 12a6.49 6.49 0 0 1 -1.39-.14l-4.15-.86a.27.27 0 0 1 -.22-.27v-9.66a.32.32 0 0 1 .1-.22.29.29 0 0 1 .24 0l4.14.85a6.18 6.18 0 0 0 2.57 0l2.77-.9a7 7 0 0 1 2.84 0l4.14.86a.27.27 0 0 1 .22.27v9.69a.28.28 0 0 1 -.1.22.29.29 0 0 1 -.24.05l-4.1-.89a6.28 6.28 0 0 0 -2.59 0l-2.77.85a7 7 0 0 1 -1.46.15zm-5.18-1.47 3.92.81a6.54 6.54 0 0 0 2.57 0l2.77-.86a6.8 6.8 0 0 1 2.84 0l3.8.78v-9.1l-3.9-.81a6.28 6.28 0 0 0 -2.59 0l-2.8.85a6.87 6.87 0 0 1 -2.82 0l-3.79-.78z"/></g></svg>