<svg xmlns="http://www.w3.org/2000/svg" viewBox="0 0 50.84 40"><defs><style>.cls-1{fill:#333;}</style></defs><g id="Calque_2" data-name="Calque 2"><g id="Layer_1" data-name="Layer 1"><path class="cls-1" d="M16.25,10.83a5.46,5.46,0,0,1-5.5,5.5,5.28,5.28,0,0,1-3.89-1.6,5.31,5.31,0,0,1-1.61-3.9A5.31,5.31,0,0,1,6.86,6.94a5.29,5.29,0,0,1,3.89-1.61,5.31,5.31,0,0,1,3.9,1.61A5.3,5.3,0,0,1,16.25,10.83Zm29.34,11V34.67H5.25v-5.5L14.42,20,19,24.58,33.67,9.92ZM48.34,1.67H2.5a.87.87,0,0,0-.64.27.89.89,0,0,0-.27.64V37.42a.89.89,0,0,0,.27.64.87.87,0,0,0,.64.27H48.34a.92.92,0,0,0,.91-.91V2.58a.92.92,0,0,0-.91-.91Zm2.5,2.5V35.83a4,4,0,0,1-1.25,3,4.12,4.12,0,0,1-3,1.22H4.24a4.14,4.14,0,0,1-3-1.22,4,4,0,0,1-1.24-3V4.17A4,4,0,0,1,1.24,1.22,4.14,4.14,0,0,1,4.24,0H46.6a4.12,4.12,0,0,1,3,1.22A4,4,0,0,1,50.84,4.17Z"/></g></g></svg>