<svg viewBox="0 0 20.48 20.48" xmlns="http://www.w3.org/2000/svg"><g fill="currentColor"><path d="m20.2 20.48h-19.92a.29.29 0 0 1 -.28-.28v-19.92a.29.29 0 0 1 .28-.28h19.92a.29.29 0 0 1 .28.28v19.92a.29.29 0 0 1 -.28.28zm-19.63-.57h19.34v-19.34h-19.34z"/><path d="m4.61 7a1.9 1.9 0 1 1 1.9-1.9 1.89 1.89 0 0 1 -1.9 1.9zm0-3.22a1.33 1.33 0 1 0 1.33 1.32 1.34 1.34 0 0 0 -1.33-1.33z"/><path d="m.28 14.53a.26.26 0 0 1 -.22-.12.27.27 0 0 1 .05-.41l7.3-5.43a.3.3 0 0 1 .34 0l4.9 3.73 7-7.42a.29.29 0 0 1 .4 0 .28.28 0 0 1 0 .4l-7.22 7.6a.28.28 0 0 1 -.38 0l-4.87-3.71-7.13 5.3a.27.27 0 0 1 -.17.06z"/></g></svg>