<svg viewBox="0 0 21.04 15.05" xmlns="http://www.w3.org/2000/svg"><g fill="currentColor"><path d="m20.36 0h-19.65a.71.71 0 0 0 -.71.71v13.54a.8.8 0 0 0 .8.8h14.5a.28.28 0 0 0 .28-.28.27.27 0 0 0 -.28-.28h-14.73v-13.92h19.9v13.92h-2a.28.28 0 0 0 -.28.28.29.29 0 0 0 .28.28h1.64a.89.89 0 0 0 .89-.89v-13.48a.68.68 0 0 0 -.64-.68z"/><path d="m10.34 11.74.18.15.18-.15c.17-.13 4.2-3.41 4.2-6.12a2.25 2.25 0 0 0 -1.69-2.38 2.6 2.6 0 0 0 -2.69 1.14 2.65 2.65 0 0 0 -2.71-1.16 2.27 2.27 0 0 0 -1.67 2.4c0 2.71 4.03 5.99 4.2 6.12zm-2.4-8a1.58 1.58 0 0 1 .38 0 2.24 2.24 0 0 1 1.95 1.33l.26.52.25-.52a2.09 2.09 0 0 1 2.3-1.27 1.7 1.7 0 0 1 1.26 1.83c0 2.14-3 4.87-3.82 5.53-.77-.67-3.82-3.4-3.82-5.54a1.72 1.72 0 0 1 1.24-1.84z"/></g></svg>