<svg viewBox="0 0 20.27 20.52" xmlns="http://www.w3.org/2000/svg"><g fill="currentColor"><path d="m4.93 20.52h-4.65a.29.29 0 0 1 -.28-.28v-10.24a.29.29 0 0 1 .28-.28h4.65a.29.29 0 0 1 .29.28v10.24a.29.29 0 0 1 -.29.28zm-4.36-.52h4.08v-9.7h-4.08z"/><path d="m12.55 20.52h-4.65a.28.28 0 0 1 -.28-.28v-15.1a.28.28 0 0 1 .28-.29h4.65a.28.28 0 0 1 .28.29v15.1a.28.28 0 0 1 -.28.28zm-4.37-.52h4.09v-14.58h-4.09z"/><path d="m20 20.52h-4.66a.28.28 0 0 1 -.28-.28v-19.96a.28.28 0 0 1 .28-.28h4.66a.28.28 0 0 1 .28.28v20a.28.28 0 0 1 -.28.24zm-4.38-.52h4.09v-19.43h-4.09z"/></g></svg>