<svg viewBox="0 0 21 24" xmlns="http://www.w3.org/2000/svg"><path d="m4.5 0a1.5 1.5 0 0 0 -1.5 1.5v21a1.5 1.5 0 0 0 1.5 1.5h15a1.5 1.5 0 0 0 1.5-1.5v-16.5l-6-6z" fill="#e2e5e7"/><path d="m16.5 6h4.5l-6-6v4.5a1.5 1.5 0 0 0 1.5 1.5z" fill="#b0b7bd"/><path d="m21 10.5-4.5-4.5h4.5z" fill="#cad1d8"/><path d="m18 19.5a.76.76 0 0 1 -.75.75h-16.5a.76.76 0 0 1 -.75-.75v-7.5a.76.76 0 0 1 .75-.75h16.5a.76.76 0 0 1 .75.75z" fill="#f15642"/><g fill="#fff"><path d="m3.27 14.21a.41.41 0 0 1 .41-.41h1.38a1.5 1.5 0 0 1 0 3h-1v.8a.38.38 0 0 1 -.38.41.4.4 0 0 1 -.41-.41zm.79.34v1.5h1a.75.75 0 0 0 0-1.5z"/><path d="m7.72 18a.38.38 0 0 1 -.42-.37v-3.41a.41.41 0 0 1 .42-.37h1.37c2.74 0 2.68 4.15.06 4.15zm.38-3.42v2.69h1c1.62 0 1.69-2.69 0-2.69z"/><path d="m12.74 14.63v.95h1.53a.47.47 0 0 1 .44.43.42.42 0 0 1 -.44.36h-1.53v1.26a.35.35 0 0 1 -.36.37.38.38 0 0 1 -.42-.37v-3.41a.38.38 0 0 1 .42-.37h2.11a.38.38 0 0 1 .42.37.42.42 0 0 1 -.42.41z"/></g><path d="m17.25 20.25h-14.25v.75h14.25a.76.76 0 0 0 .75-.75v-.75a.76.76 0 0 1 -.75.75z" fill="#cad1d8"/></svg>