<svg viewBox="0 0 20.29 20.29" xmlns="http://www.w3.org/2000/svg"><g fill="currentColor"><path d="m11.23 20.29h-2.17a.76.76 0 0 1 -.76-.76v-.92a1 1 0 0 0 -.7-1 9 9 0 0 1 -1-.4 1 1 0 0 0 -1.14.18l-.68.68a.79.79 0 0 1 -1.07 0l-1.5-1.51a.76.76 0 0 1 0-1.08l.68-.68a1 1 0 0 0 .18-1.15 8.09 8.09 0 0 1 -.4-1 1 1 0 0 0 -1-.7h-.91a.76.76 0 0 1 -.76-.72v-2.17a.76.76 0 0 1 .76-.76h1a1 1 0 0 0 1-.69 7.1 7.1 0 0 1 .4-1 1 1 0 0 0 -.18-1.15l-.7-.7a.74.74 0 0 1 0-1.07l1.46-1.48a.77.77 0 0 1 1.07 0l.71.7a1 1 0 0 0 1.15.19 7.31 7.31 0 0 1 1-.4 1 1 0 0 0 .68-1v-1a.76.76 0 0 1 .71-.7h2.17a.76.76 0 0 1 .77.76v1a1 1 0 0 0 .69 1 8.7 8.7 0 0 1 1 .4 1 1 0 0 0 1.14-.19l.71-.7a.76.76 0 0 1 1.08 0l1.52 1.53a.74.74 0 0 1 0 1.07l-.69.7a1 1 0 0 0 -.19 1.15 7.1 7.1 0 0 1 .4 1 1 1 0 0 0 1 .69h1a.76.76 0 0 1 .76.76v2.17a.76.76 0 0 1 -.76.76h-1a1 1 0 0 0 -1 .7 8.09 8.09 0 0 1 -.4 1 1 1 0 0 0 .18 1.15l.68.68a.76.76 0 0 1 0 1.08l-1.52 1.53a.78.78 0 0 1 -1.08 0l-.67-.68a1 1 0 0 0 -1.15-.18 8.24 8.24 0 0 1 -1 .4 1 1 0 0 0 -.7 1v.92a.76.76 0 0 1 -.77.59zm-5.05-3.73a1.63 1.63 0 0 1 .71.16 7.67 7.67 0 0 0 .89.38 1.6 1.6 0 0 1 1.09 1.51v.92a.2.2 0 0 0 .19.2h2.17a.2.2 0 0 0 .19-.2v-.92a1.6 1.6 0 0 1 1.09-1.51 7 7 0 0 0 .89-.38 1.58 1.58 0 0 1 1.81.29l.67.67a.18.18 0 0 0 .27 0l1.53-1.53a.16.16 0 0 0 .06-.13.2.2 0 0 0 -.06-.14l-.68-.68a1.57 1.57 0 0 1 -.29-1.8 7.6 7.6 0 0 0 .37-.89 1.59 1.59 0 0 1 1.5-1.09h1a.2.2 0 0 0 .2-.19v-2.17a.2.2 0 0 0 -.2-.19h-1a1.58 1.58 0 0 1 -1.5-1.08c-.11-.3-.23-.59-.37-.88a1.56 1.56 0 0 1 .29-1.8l.7-.7a.18.18 0 0 0 .06-.14.16.16 0 0 0 -.06-.13l-1.55-1.53a.18.18 0 0 0 -.27 0l-.71.71a1.57 1.57 0 0 1 -1.79.29 7.6 7.6 0 0 0 -.89-.37 1.57 1.57 0 0 1 -1.07-1.49v-1a.19.19 0 0 0 -.19-.19h-2.17a.19.19 0 0 0 -.19.19v1a1.57 1.57 0 0 1 -1.07 1.49 6.82 6.82 0 0 0 -.88.37 1.58 1.58 0 0 1 -1.8-.29l-.71-.71a.18.18 0 0 0 -.27 0l-1.53 1.53a.16.16 0 0 0 -.06.13.18.18 0 0 0 .06.14l.7.7a1.55 1.55 0 0 1 .28 1.8 8.15 8.15 0 0 0 -.36.88 1.6 1.6 0 0 1 -1.5 1.08h-1a.19.19 0 0 0 -.19.19v2.17a.19.19 0 0 0 .19.19h1a1.59 1.59 0 0 1 1.5 1.09 7.6 7.6 0 0 0 .37.89 1.57 1.57 0 0 1 -.29 1.8l-.68.68a.2.2 0 0 0 -.06.14.16.16 0 0 0 .06.13l1.53 1.53a.18.18 0 0 0 .27 0l.65-.68a1.55 1.55 0 0 1 1.1-.44z"/><path d="m10.15 15.81a5.67 5.67 0 1 1 5.66-5.66 5.67 5.67 0 0 1 -5.66 5.66zm0-10.76a5.1 5.1 0 1 0 5.09 5.1 5.11 5.11 0 0 0 -5.09-5.1z"/></g></svg>