<svg xmlns="http://www.w3.org/2000/svg">
    <symbol id="delete" viewBox="0 0 20.36 20.36"><g fill="currentColor"><path d="m10.18 20.36a10.18 10.18 0 1 1 7.21-3 10.16 10.16 0 0 1 -7.21 3zm0-19.79a9.61 9.61 0 1 0 6.82 16.43 9.61 9.61 0 0 0 -6.82-16.43z"/><path d="m6 14.63a.28.28 0 0 1 -.2-.08.27.27 0 0 1 0-.4l8.23-8.24a.28.28 0 0 1 .4 0 .27.27 0 0 1 0 .4l-8.21 8.24a.32.32 0 0 1 -.22.08z"/><path d="m14.25 14.63a.32.32 0 0 1 -.2-.08l-8.23-8.24a.27.27 0 0 1 0-.4.28.28 0 0 1 .4 0l8.23 8.24a.27.27 0 0 1 0 .4.28.28 0 0 1 -.2.08z"/></g></symbol>
    <symbol id="doc-dispo" viewBox="0 0 13.4 16.48"><path d="m0 .28v15.92a.29.29 0 0 0 .28.28h9.26.11l3.67-3.48a.28.28 0 0 0 .08-.2v-12.52a.28.28 0 0 0 -.28-.28h-12.84a.29.29 0 0 0 -.28.28zm9.82 15.25v-2.53h2.6zm-9.25-14.96h12.27v11.9h-3.3a.28.28 0 0 0 -.28.28v3.16h-8.69z" fill="currentColor"/></symbol>
    <symbol id="video-dispo" viewBox="0 0 21.04 15.05"><g fill="currentColor"><path d="m20.36 0h-19.65a.71.71 0 0 0 -.71.71v13.54a.8.8 0 0 0 .8.8h14.5a.28.28 0 0 0 .28-.28.27.27 0 0 0 -.28-.28h-14.73v-13.92h19.9v13.92h-2a.28.28 0 0 0 -.28.28.29.29 0 0 0 .28.28h1.64a.89.89 0 0 0 .89-.89v-13.48a.68.68 0 0 0 -.64-.68z"/><path d="m7.87 10v-6.13a.28.28 0 0 1 .42-.25l5.31 3.06a.28.28 0 0 1 0 .49l-5.31 3.07a.29.29 0 0 1 -.42-.24zm.57-5.63v5.13l4.45-2.57z"/></g></symbol>
    <symbol id="download" viewBox="0 0 20.42 20.69"><g fill="currentColor"><path d="m20.14 20.69h-19.86a.29.29 0 0 1 -.28-.29v-10a.28.28 0 0 1 .28-.28.28.28 0 0 1 .29.28v9.68h19.29v-9.64a.28.28 0 0 1 .56 0v10a.28.28 0 0 1 -.28.25z"/><path d="m10.21 15.87a.28.28 0 0 1 -.28-.28v-15.31a.28.28 0 1 1 .56 0v15.31a.28.28 0 0 1 -.28.28z"/><path d="m10.21 16.3a.27.27 0 0 1 -.23-.12l-2.1-2.95a.28.28 0 0 1 .46-.32l1.87 2.62 1.87-2.62a.29.29 0 0 1 .4-.07.28.28 0 0 1 .06.39l-2.1 2.95a.27.27 0 0 1 -.23.12z"/></g></symbol>
    <symbol id="edit" viewBox="0 0 20.62 18.38"><g fill="currentColor"><path d="m20.33 18.38h-20.05a.28.28 0 0 1 0-.56h20a.28.28 0 1 1 0 .56z"/><path d="m5.52 16.19a.3.3 0 0 1 -.15-.05.29.29 0 0 1 -.13-.22l-.24-3.28a.25.25 0 0 1 0-.17l8-12.34a.28.28 0 0 1 .39-.08l3.28 2.11a.36.36 0 0 1 .12.18.34.34 0 0 1 0 .22l-8 12.34a.26.26 0 0 1 -.14.11l-3.03 1.16zm.09-3.49.17 2.8 2.62-1 7.8-12-2.8-1.82z"/></g></symbol>
    <symbol id="faire-live" viewBox="0 0 20.88 20.88"><g fill="currentColor"><path d="m10.44 20.88a10.44 10.44 0 1 1 10.44-10.44 10.45 10.45 0 0 1 -10.44 10.44zm0-20.31a9.87 9.87 0 1 0 9.87 9.87 9.88 9.88 0 0 0 -9.87-9.87z"/><path d="m7.46 15.2a.23.23 0 0 1 -.14 0 .27.27 0 0 1 -.14-.25v-8.95a.27.27 0 0 1 .14-.24.28.28 0 0 1 .28 0l7.66 4.47a.31.31 0 0 1 .14.25.29.29 0 0 1 -.14.24l-7.66 4.44a.33.33 0 0 1 -.14.04zm.28-8.74v8l6.81-4z"/></g></symbol>
    <symbol id="image" viewBox="0 0 20.48 20.48"><g fill="currentColor"><path d="m20.2 20.48h-19.92a.29.29 0 0 1 -.28-.28v-19.92a.29.29 0 0 1 .28-.28h19.92a.29.29 0 0 1 .28.28v19.92a.29.29 0 0 1 -.28.28zm-19.63-.57h19.34v-19.34h-19.34z"/><path d="m4.61 7a1.9 1.9 0 1 1 1.9-1.9 1.89 1.89 0 0 1 -1.9 1.9zm0-3.22a1.33 1.33 0 1 0 1.33 1.32 1.34 1.34 0 0 0 -1.33-1.33z"/><path d="m.28 14.53a.26.26 0 0 1 -.22-.12.27.27 0 0 1 .05-.41l7.3-5.43a.3.3 0 0 1 .34 0l4.9 3.73 7-7.42a.29.29 0 0 1 .4 0 .28.28 0 0 1 0 .4l-7.22 7.6a.28.28 0 0 1 -.38 0l-4.87-3.71-7.13 5.3a.27.27 0 0 1 -.17.06z"/></g></symbol>
    <symbol id="my-lives" viewBox="0 0 20.27 20.52"><g fill="currentColor"><path d="m4.93 20.52h-4.65a.29.29 0 0 1 -.28-.28v-10.24a.29.29 0 0 1 .28-.28h4.65a.29.29 0 0 1 .29.28v10.24a.29.29 0 0 1 -.29.28zm-4.36-.52h4.08v-9.7h-4.08z"/><path d="m12.55 20.52h-4.65a.28.28 0 0 1 -.28-.28v-15.1a.28.28 0 0 1 .28-.29h4.65a.28.28 0 0 1 .28.29v15.1a.28.28 0 0 1 -.28.28zm-4.37-.52h4.09v-14.58h-4.09z"/><path d="m20 20.52h-4.66a.28.28 0 0 1 -.28-.28v-19.96a.28.28 0 0 1 .28-.28h4.66a.28.28 0 0 1 .28.28v20a.28.28 0 0 1 -.28.24zm-4.38-.52h4.09v-19.43h-4.09z"/></g></symbol>
    <symbol id="my-videos" viewBox="0 0 21.04 15.05"><g fill="currentColor"><path d="m20.36 0h-19.65a.71.71 0 0 0 -.71.71v13.54a.8.8 0 0 0 .8.8h14.5a.28.28 0 0 0 .28-.28.27.27 0 0 0 -.28-.28h-14.73v-13.92h19.9v13.92h-2a.28.28 0 0 0 -.28.28.29.29 0 0 0 .28.28h1.64a.89.89 0 0 0 .89-.89v-13.48a.68.68 0 0 0 -.64-.68z"/><path d="m10.34 11.74.18.15.18-.15c.17-.13 4.2-3.41 4.2-6.12a2.25 2.25 0 0 0 -1.69-2.38 2.6 2.6 0 0 0 -2.69 1.14 2.65 2.65 0 0 0 -2.71-1.16 2.27 2.27 0 0 0 -1.67 2.4c0 2.71 4.03 5.99 4.2 6.12zm-2.4-8a1.58 1.58 0 0 1 .38 0 2.24 2.24 0 0 1 1.95 1.33l.26.52.25-.52a2.09 2.09 0 0 1 2.3-1.27 1.7 1.7 0 0 1 1.26 1.83c0 2.14-3 4.87-3.82 5.53-.77-.67-3.82-3.4-3.82-5.54a1.72 1.72 0 0 1 1.24-1.84z"/></g></symbol>
    <symbol id="settings" viewBox="0 0 20.29 20.29"><g fill="currentColor"><path d="m11.23 20.29h-2.17a.76.76 0 0 1 -.76-.76v-.92a1 1 0 0 0 -.7-1 9 9 0 0 1 -1-.4 1 1 0 0 0 -1.14.18l-.68.68a.79.79 0 0 1 -1.07 0l-1.5-1.51a.76.76 0 0 1 0-1.08l.68-.68a1 1 0 0 0 .18-1.15 8.09 8.09 0 0 1 -.4-1 1 1 0 0 0 -1-.7h-.91a.76.76 0 0 1 -.76-.72v-2.17a.76.76 0 0 1 .76-.76h1a1 1 0 0 0 1-.69 7.1 7.1 0 0 1 .4-1 1 1 0 0 0 -.18-1.15l-.7-.7a.74.74 0 0 1 0-1.07l1.46-1.48a.77.77 0 0 1 1.07 0l.71.7a1 1 0 0 0 1.15.19 7.31 7.31 0 0 1 1-.4 1 1 0 0 0 .68-1v-1a.76.76 0 0 1 .71-.7h2.17a.76.76 0 0 1 .77.76v1a1 1 0 0 0 .69 1 8.7 8.7 0 0 1 1 .4 1 1 0 0 0 1.14-.19l.71-.7a.76.76 0 0 1 1.08 0l1.52 1.53a.74.74 0 0 1 0 1.07l-.69.7a1 1 0 0 0 -.19 1.15 7.1 7.1 0 0 1 .4 1 1 1 0 0 0 1 .69h1a.76.76 0 0 1 .76.76v2.17a.76.76 0 0 1 -.76.76h-1a1 1 0 0 0 -1 .7 8.09 8.09 0 0 1 -.4 1 1 1 0 0 0 .18 1.15l.68.68a.76.76 0 0 1 0 1.08l-1.52 1.53a.78.78 0 0 1 -1.08 0l-.67-.68a1 1 0 0 0 -1.15-.18 8.24 8.24 0 0 1 -1 .4 1 1 0 0 0 -.7 1v.92a.76.76 0 0 1 -.77.59zm-5.05-3.73a1.63 1.63 0 0 1 .71.16 7.67 7.67 0 0 0 .89.38 1.6 1.6 0 0 1 1.09 1.51v.92a.2.2 0 0 0 .19.2h2.17a.2.2 0 0 0 .19-.2v-.92a1.6 1.6 0 0 1 1.09-1.51 7 7 0 0 0 .89-.38 1.58 1.58 0 0 1 1.81.29l.67.67a.18.18 0 0 0 .27 0l1.53-1.53a.16.16 0 0 0 .06-.13.2.2 0 0 0 -.06-.14l-.68-.68a1.57 1.57 0 0 1 -.29-1.8 7.6 7.6 0 0 0 .37-.89 1.59 1.59 0 0 1 1.5-1.09h1a.2.2 0 0 0 .2-.19v-2.17a.2.2 0 0 0 -.2-.19h-1a1.58 1.58 0 0 1 -1.5-1.08c-.11-.3-.23-.59-.37-.88a1.56 1.56 0 0 1 .29-1.8l.7-.7a.18.18 0 0 0 .06-.14.16.16 0 0 0 -.06-.13l-1.55-1.53a.18.18 0 0 0 -.27 0l-.71.71a1.57 1.57 0 0 1 -1.79.29 7.6 7.6 0 0 0 -.89-.37 1.57 1.57 0 0 1 -1.07-1.49v-1a.19.19 0 0 0 -.19-.19h-2.17a.19.19 0 0 0 -.19.19v1a1.57 1.57 0 0 1 -1.07 1.49 6.82 6.82 0 0 0 -.88.37 1.58 1.58 0 0 1 -1.8-.29l-.71-.71a.18.18 0 0 0 -.27 0l-1.53 1.53a.16.16 0 0 0 -.06.13.18.18 0 0 0 .06.14l.7.7a1.55 1.55 0 0 1 .28 1.8 8.15 8.15 0 0 0 -.36.88 1.6 1.6 0 0 1 -1.5 1.08h-1a.19.19 0 0 0 -.19.19v2.17a.19.19 0 0 0 .19.19h1a1.59 1.59 0 0 1 1.5 1.09 7.6 7.6 0 0 0 .37.89 1.57 1.57 0 0 1 -.29 1.8l-.68.68a.2.2 0 0 0 -.06.14.16.16 0 0 0 .06.13l1.53 1.53a.18.18 0 0 0 .27 0l.65-.68a1.55 1.55 0 0 1 1.1-.44z"/><path d="m10.15 15.81a5.67 5.67 0 1 1 5.66-5.66 5.67 5.67 0 0 1 -5.66 5.66zm0-10.76a5.1 5.1 0 1 0 5.09 5.1 5.11 5.11 0 0 0 -5.09-5.1z"/></g></symbol>
    <symbol id="user" viewBox="0 0 15.38 20.44"><g fill="currentColor"><path d="m8.93 19.88h-8.36v-4a5.87 5.87 0 0 1 11.12-2.64.28.28 0 0 0 .38.12.27.27 0 0 0 .12-.38 6.4 6.4 0 0 0 -4.06-3.29 5 5 0 1 0 -3.51 0 6.45 6.45 0 0 0 -4.62 6.22v4.25a.28.28 0 0 0 .28.28h8.65a.28.28 0 1 0 0-.56zm-7.06-14.88a4.45 4.45 0 1 1 4.45 4.47 4.45 4.45 0 0 1 -4.45-4.47z"/><path d="m15.1 17.38h-5a.29.29 0 0 0 0 .57h5a.29.29 0 0 0 0-.57z"/></g></symbol>
    <symbol id="categories" viewBox="0 0 20.97 20.97"><path d="m21 .28a.29.29 0 0 0 -.31-.28h-20.41a.29.29 0 0 0 -.28.28v20.41a.29.29 0 0 0 .28.31h20.41a.29.29 0 0 0 .28-.28zm-20.43 20.12v-14.26h5.81v14.13a.2.2 0 0 0 0 .13zm19.83 0h-13.5a.2.2 0 0 0 0-.13v-7.27h13.5zm0-7.92h-13.46v-6.34h13.46zm0-6.9h-19.83v-5h19.83z" fill="currentColor"/></symbol>
    <symbol id="see" viewBox="0 0 64 64" stroke="currentColor"><path d="M32 48c20.273 0 31.345-14.779 31.807-15.409L64.24 32l-.434-.591C63.345 30.779 52.273 16 32 16S.655 30.779.193 31.409L-.24 32l.434.591C.655 33.221 11.727 48 32 48zm0-30c16.983 0 27.434 11.265 29.719 14C59.434 34.735 48.983 46 32 46S4.566 34.735 2.281 32C4.566 29.265 15.017 18 32 18z"/><path d="m32 40c4.411 0 8-3.589 8-8s-3.589-8-8-8-8 3.589-8 8 3.589 8 8 8zm0-14c3.309 0 6 2.691 6 6s-2.691 6-6 6-6-2.691-6-6 2.691-6 6-6z"/></symbol>
    <symbol id="power" viewBox="0 0 18.4 20.84"><g fill="currentColor"><path d="m9.2 20.84a9.2 9.2 0 0 1 -6.62-15.59 9.24 9.24 0 0 1 3.31-2.2.28.28 0 0 1 .36.17.27.27 0 0 1 -.16.36 8.54 8.54 0 0 0 -3.09 2.07 8.61 8.61 0 1 0 9.32-2.07.28.28 0 0 1 -.17-.36.3.3 0 0 1 .37-.17 9.2 9.2 0 0 1 -3.32 17.79z"/><path d="m9.24 8.32a.29.29 0 0 1 -.24-.32v-7.72a.29.29 0 0 1 .57 0v7.72a.29.29 0 0 1 -.33.32z"/></g></symbol>
    <symbol id="chevron-down"  viewBox="0 0 24 24" fill="none" stroke="currentColor" stroke-width="2" stroke-linecap="round" stroke-linejoin="round"><polyline points="6 9 12 15 18 9"></polyline></symbol>
    <symbol id="search" viewBox="0 0 18.18 20.88"><g fill="currentColor"><path d="m7.92 15.85a7.93 7.93 0 1 1 7.93-7.93 7.93 7.93 0 0 1 -7.93 7.93zm0-15.28a7.36 7.36 0 1 0 7.36 7.35 7.36 7.36 0 0 0 -7.36-7.35z"/><path d="m17.9 20.88a.32.32 0 0 1 -.22-.1l-5.51-6.48a.29.29 0 0 1 .44-.37l5.51 6.48a.29.29 0 0 1 0 .4.31.31 0 0 1 -.22.07z"/></g></symbol>
    <symbol id="flag" viewBox="0 0 18.44 20.47"><g fill="currentColor"><path d="m.28 20.47a.28.28 0 0 1 -.28-.28v-19.91a.29.29 0 0 1 .28-.28.29.29 0 0 1 .29.28v19.91a.28.28 0 0 1 -.29.28z"/><path d="m7.18 12a6.49 6.49 0 0 1 -1.39-.14l-4.15-.86a.27.27 0 0 1 -.22-.27v-9.66a.32.32 0 0 1 .1-.22.29.29 0 0 1 .24 0l4.14.85a6.18 6.18 0 0 0 2.57 0l2.77-.9a7 7 0 0 1 2.84 0l4.14.86a.27.27 0 0 1 .22.27v9.69a.28.28 0 0 1 -.1.22.29.29 0 0 1 -.24.05l-4.1-.89a6.28 6.28 0 0 0 -2.59 0l-2.77.85a7 7 0 0 1 -1.46.15zm-5.18-1.47 3.92.81a6.54 6.54 0 0 0 2.57 0l2.77-.86a6.8 6.8 0 0 1 2.84 0l3.8.78v-9.1l-3.9-.81a6.28 6.28 0 0 0 -2.59 0l-2.8.85a6.87 6.87 0 0 1 -2.82 0l-3.79-.78z"/></g></symbol>

    <symbol id="zip" enable-background="new 0 0 26 26" viewBox="0 0 26 26"><g fill="currentColor"><path d="m17 11h-15c-.551 0-1 .449-1 1v6c0 .551.449 1 1 1h15c.551 0 1-.449 1-1v-6c0-.551-.449-1-1-1zm-8.949 6.841c0 .088-.072.159-.159.159h-3.954c-.088 0-.159-.071-.159-.159v-.694c0-.029.009-.059.023-.083l2.298-3.704h-1.943c-.088 0-.159-.071-.159-.159v-1.066c0-.088.071-.159.159-.159h3.696c.088 0 .159.071.159.159v.745c0 .028-.009.058-.024.083l-2.245 3.651h2.148c.088 0 .159.071.159.159v1.068zm2.397 0c0 .088-.071.159-.159.159h-1.148c-.088 0-.159-.071-.159-.159v-5.706c0-.088.071-.159.159-.159h1.148c.088 0 .159.071.159.159zm5.012-2.505c-.411.425-1.023.648-1.77.648-.088 0-.166-.003-.233-.008v1.864c0 .088-.071.159-.159.159h-1.142c-.088 0-.159-.071-.159-.159v-5.63c0-.077.055-.142.129-.156.423-.08.956-.121 1.587-.121.746 0 1.29.163 1.664.498.378.327.598.853.598 1.438 0 .61-.184 1.131-.515 1.467z"/><path d="m13.766 13.233c-.143 0-.243.006-.309.015v1.42c.06.006.132.008.226.008.529 0 .832-.278.832-.763 0-.561-.408-.68-.749-.68z"/><path d="m22.266 4.207c-.244-.24-.494-.484-.74-.732-.248-.246-.492-.496-.732-.74-1.712-1.747-2.731-2.735-3.794-2.735h-8c-2.205 0-4 1.795-4 4v7.2h2v-7.2c0-1.104.896-2 2-2l7.289-.004c.721.184.711 1.07.711 1.957v3.047c0 .551.449 1 1 1h3c.998 0 2 .005 2 1v13c0 1.104-.896 2-2 2h-12c-1.104 0-2-.896-2-2v-3.2h-2v3.2c0 2.205 1.795 4 4 4h12c2.205 0 4-1.795 4-4v-14c0-1.062-.988-2.082-2.734-3.793z"/></g></symbol>

    <symbol id="bin" viewBox="0 0 24 24" fill="none" stroke="currentColor" stroke-width="1.5" stroke-linecap="round" stroke-linejoin="round"><polyline points="3 6 5 6 21 6"></polyline><path d="M19 6v14a2 2 0 0 1-2 2H7a2 2 0 0 1-2-2V6m3 0V4a2 2 0 0 1 2-2h4a2 2 0 0 1 2 2v2"></path><line x1="10" y1="11" x2="10" y2="17"></line><line x1="14" y1="11" x2="14" y2="17"></line></symbol>
    <!--symbol id="edit" viewBox="0 0 24 24" fill="none" stroke="currentColor" stroke-width="1.5" stroke-linecap="round" stroke-linejoin="round"><path d="M20 14.66V20a2 2 0 0 1-2 2H4a2 2 0 0 1-2-2V6a2 2 0 0 1 2-2h5.34"></path><polygon points="18 2 22 6 12 16 8 16 8 12 18 2"></polygon></symbol-->
    <symbol id="pdf" viewBox="0 0 21 24"><path d="m4.5 0a1.5 1.5 0 0 0 -1.5 1.5v21a1.5 1.5 0 0 0 1.5 1.5h15a1.5 1.5 0 0 0 1.5-1.5v-16.5l-6-6z" fill="#e2e5e7"/><path d="m16.5 6h4.5l-6-6v4.5a1.5 1.5 0 0 0 1.5 1.5z" fill="#b0b7bd"/><path d="m21 10.5-4.5-4.5h4.5z" fill="#cad1d8"/><path d="m18 19.5a.76.76 0 0 1 -.75.75h-16.5a.76.76 0 0 1 -.75-.75v-7.5a.76.76 0 0 1 .75-.75h16.5a.76.76 0 0 1 .75.75z" fill="#f15642"/><g fill="#fff"><path d="m3.27 14.21a.41.41 0 0 1 .41-.41h1.38a1.5 1.5 0 0 1 0 3h-1v.8a.38.38 0 0 1 -.38.41.4.4 0 0 1 -.41-.41zm.79.34v1.5h1a.75.75 0 0 0 0-1.5z"/><path d="m7.72 18a.38.38 0 0 1 -.42-.37v-3.41a.41.41 0 0 1 .42-.37h1.37c2.74 0 2.68 4.15.06 4.15zm.38-3.42v2.69h1c1.62 0 1.69-2.69 0-2.69z"/><path d="m12.74 14.63v.95h1.53a.47.47 0 0 1 .44.43.42.42 0 0 1 -.44.36h-1.53v1.26a.35.35 0 0 1 -.36.37.38.38 0 0 1 -.42-.37v-3.41a.38.38 0 0 1 .42-.37h2.11a.38.38 0 0 1 .42.37.42.42 0 0 1 -.42.41z"/></g><path d="m17.25 20.25h-14.25v.75h14.25a.76.76 0 0 0 .75-.75v-.75a.76.76 0 0 1 -.75.75z" fill="#cad1d8"/></symbol>    <!--symbol id="image" viewBox="0 0 50.84 40"><path fill="currentColor" d="M16.25,10.83a5.46,5.46,0,0,1-5.5,5.5,5.28,5.28,0,0,1-3.89-1.6,5.31,5.31,0,0,1-1.61-3.9A5.31,5.31,0,0,1,6.86,6.94a5.29,5.29,0,0,1,3.89-1.61,5.31,5.31,0,0,1,3.9,1.61A5.3,5.3,0,0,1,16.25,10.83Zm29.34,11V34.67H5.25v-5.5L14.42,20,19,24.58,33.67,9.92ZM48.34,1.67H2.5a.87.87,0,0,0-.64.27.89.89,0,0,0-.27.64V37.42a.89.89,0,0,0,.27.64.87.87,0,0,0,.64.27H48.34a.92.92,0,0,0,.91-.91V2.58a.92.92,0,0,0-.91-.91Zm2.5,2.5V35.83a4,4,0,0,1-1.25,3,4.12,4.12,0,0,1-3,1.22H4.24a4.14,4.14,0,0,1-3-1.22,4,4,0,0,1-1.24-3V4.17A4,4,0,0,1,1.24,1.22,4.14,4.14,0,0,1,4.24,0H46.6a4.12,4.12,0,0,1,3,1.22A4,4,0,0,1,50.84,4.17Z"/></symbol-->
</svg>