<svg enable-background="new 0 0 26 26" viewBox="0 0 26 26" xmlns="http://www.w3.org/2000/svg"><g fill="currentColor"><path d="m17 11h-15c-.551 0-1 .449-1 1v6c0 .551.449 1 1 1h15c.551 0 1-.449 1-1v-6c0-.551-.449-1-1-1zm-8.949 6.841c0 .088-.072.159-.159.159h-3.954c-.088 0-.159-.071-.159-.159v-.694c0-.029.009-.059.023-.083l2.298-3.704h-1.943c-.088 0-.159-.071-.159-.159v-1.066c0-.088.071-.159.159-.159h3.696c.088 0 .159.071.159.159v.745c0 .028-.009.058-.024.083l-2.245 3.651h2.148c.088 0 .159.071.159.159v1.068zm2.397 0c0 .088-.071.159-.159.159h-1.148c-.088 0-.159-.071-.159-.159v-5.706c0-.088.071-.159.159-.159h1.148c.088 0 .159.071.159.159zm5.012-2.505c-.411.425-1.023.648-1.77.648-.088 0-.166-.003-.233-.008v1.864c0 .088-.071.159-.159.159h-1.142c-.088 0-.159-.071-.159-.159v-5.63c0-.077.055-.142.129-.156.423-.08.956-.121 1.587-.121.746 0 1.29.163 1.664.498.378.327.598.853.598 1.438 0 .61-.184 1.131-.515 1.467z"/><path d="m13.766 13.233c-.143 0-.243.006-.309.015v1.42c.06.006.132.008.226.008.529 0 .832-.278.832-.763 0-.561-.408-.68-.749-.68z"/><path d="m22.266 4.207c-.244-.24-.494-.484-.74-.732-.248-.246-.492-.496-.732-.74-1.712-1.747-2.731-2.735-3.794-2.735h-8c-2.205 0-4 1.795-4 4v7.2h2v-7.2c0-1.104.896-2 2-2l7.289-.004c.721.184.711 1.07.711 1.957v3.047c0 .551.449 1 1 1h3c.998 0 2 .005 2 1v13c0 1.104-.896 2-2 2h-12c-1.104 0-2-.896-2-2v-3.2h-2v3.2c0 2.205 1.795 4 4 4h12c2.205 0 4-1.795 4-4v-14c0-1.062-.988-2.082-2.734-3.793z"/></g></svg>